<svg width="80" height="81" viewBox="0 0 80 81" fill="none" xmlns="http://www.w3.org/2000/svg">
<rect x="1.5" y="1.89893" width="77" height="77" rx="6.5" stroke="#F0ECF0" stroke-width="3"/>
<path fill-rule="evenodd" clip-rule="evenodd" d="M49.1725 22.0657H49.1693H30.8163H30.813C27.8793 22.0665 25.0398 23.1012 22.7933 24.988C20.5469 26.8748 19.0372 29.4929 18.5297 32.3823L15.1193 49.9011C15.1183 49.9108 15.1183 49.9206 15.1193 49.9303C14.9292 51.0085 14.9775 52.1154 15.2608 53.173C15.5441 54.2306 16.0556 55.2134 16.7592 56.0523C17.4629 56.8912 18.3417 57.5658 19.3339 58.0288C20.3261 58.4918 21.4077 58.7319 22.5026 58.7323H22.5039H22.5059C24.4948 58.731 26.4021 57.9414 27.81 56.5365L27.8829 56.4594L36.1475 47.0657H43.8526L52.1255 56.4594C52.1484 56.4865 52.1734 56.5115 52.1984 56.5365C52.9729 57.3107 53.9074 57.9059 54.9365 58.2803C55.759 58.5796 56.626 58.732 57.4979 58.7323C57.7179 58.7325 57.9382 58.723 58.1582 58.7037C59.2491 58.6082 60.3058 58.275 61.2541 57.7275C62.2025 57.1799 63.0194 56.4314 63.6475 55.5344C64.2128 54.7276 64.6123 53.8166 64.8229 52.8543C65.0335 51.8919 65.0511 50.8974 64.8746 49.9282C64.8756 49.9185 64.8756 49.9087 64.8746 49.899L61.4642 32.3636V32.3261C60.937 29.4492 59.4189 26.8477 57.1735 24.9734C54.9282 23.0991 52.0973 22.0703 49.1725 22.0657ZM49.1693 43.7323C51.6004 43.7323 53.932 42.7666 55.6511 41.0475C57.3702 39.3284 58.3359 36.9968 58.3359 34.5657C58.3359 32.1345 57.3702 29.8029 55.6511 28.0839C53.932 26.3648 51.6004 25.399 49.1693 25.399H30.8163C28.6641 25.4009 26.5815 26.1618 24.935 27.5477C23.2884 28.9336 22.1833 30.8558 21.8142 32.9761V33.0032L18.4017 50.5219C18.2508 51.3904 18.3794 52.2844 18.7687 53.0753C19.1581 53.8662 19.7883 54.5132 20.5686 54.9233C21.1686 55.2385 21.8335 55.4013 22.5053 55.4016C22.7062 55.4015 22.9076 55.3869 23.1082 55.3575C23.9803 55.2296 24.7895 54.8284 25.4193 54.2115L34.1526 44.2969C34.309 44.1195 34.5013 43.9774 34.7168 43.8801C34.9323 43.7827 35.1661 43.7324 35.4026 43.7323H35.4059H49.1693ZM61.6068 50.5219L59.7867 41.1509C58.667 42.9575 57.1052 44.4487 55.2487 45.4836C53.3909 46.5194 51.2995 47.0639 49.1725 47.0657H49.1693H48.2975L54.5892 54.2136C55.0636 54.675 55.6406 55.0173 56.2729 55.2125C56.6737 55.3363 57.0896 55.3987 57.5064 55.3988C57.746 55.3986 57.9859 55.3779 58.2234 55.3365C59.3094 55.1448 60.2752 54.5304 60.909 53.6279C61.5428 52.7255 61.7929 51.6085 61.6047 50.5219H61.6068ZM32.2879 34.4825L28.7879 39.8325L29.0713 40.3992H31.6046L33.8713 36.8325L36.1379 40.3992H38.6713L38.9546 39.8325L35.4546 34.4825L38.7379 29.4658L38.4713 28.8992H35.9213L33.8713 32.1492L31.8213 28.8992H29.2713L29.0046 29.4658L32.2879 34.4825ZM42.289 28.8992V40.3992H46.589C49.9001 40.3992 51.5556 38.7436 51.5556 35.4325V33.8658C51.5556 30.5547 49.9001 28.8992 46.589 28.8992H42.289ZM46.7556 37.7825H45.189V31.5158H46.7556C48.0223 31.5158 48.6556 32.1547 48.6556 33.4325V35.8658C48.6556 37.1436 48.0223 37.7825 46.7556 37.7825Z" fill="#F0ECF0"/>
</svg>
