<svg width="24" height="18" viewBox="0 0 24 18" fill="none" xmlns="http://www.w3.org/2000/svg">
<path fill-rule="evenodd" clip-rule="evenodd" d="M16.4033 0H16.402H7.59046H7.58923C6.18078 0.000399528 4.81751 0.497163 3.739 1.403C2.66047 2.30884 1.9357 3.5658 1.69202 4.95302L0.05468 13.3638C0.0541982 13.3684 0.0541982 13.3731 0.05468 13.3778C-0.0365822 13.8954 -0.0133883 14.4268 0.122633 14.9346C0.258653 15.4424 0.504202 15.9142 0.842029 16.3169C1.17986 16.7197 1.60177 17.0436 2.07813 17.2659C2.55449 17.4881 3.07374 17.6034 3.59941 17.6036H3.59988H3.60064C4.55552 17.603 5.47123 17.2239 6.14716 16.5494L6.18217 16.5124L10.15 12.0025H13.8495L17.8213 16.5124C17.8323 16.5254 17.8443 16.5374 17.8563 16.5494L17.8563 16.5494C18.2282 16.9211 18.6768 17.2069 19.1709 17.3866C19.5667 17.5306 19.9839 17.6038 20.4035 17.6036C20.5081 17.6036 20.6128 17.599 20.7173 17.5899C21.241 17.544 21.7484 17.3841 22.2036 17.1212C22.6589 16.8583 23.0511 16.4989 23.3527 16.0683C23.6241 15.681 23.8159 15.2436 23.917 14.7816C24.0181 14.3196 24.0266 13.8421 23.9418 13.3768C23.9421 13.3744 23.9422 13.372 23.9422 13.3696C23.9422 13.3673 23.9421 13.365 23.9418 13.3628L22.3045 4.94402V4.92602C22.0514 3.54481 21.3225 2.29586 20.2446 1.39601C19.1666 0.496163 17.8075 0.00224017 16.4033 0ZM16.402 10.4021C17.5692 10.4021 18.6886 9.93848 19.514 9.11315C20.3393 8.28782 20.803 7.16843 20.803 6.00124C20.803 4.83404 20.3393 3.71466 19.514 2.88933C18.6886 2.064 17.5692 1.60033 16.402 1.60033H7.59046C6.5572 1.60126 5.55736 1.96654 4.76685 2.63192C3.97634 3.29729 3.4458 4.22013 3.26857 5.23808V5.25108L1.63023 13.6618C1.55781 14.0788 1.61951 14.508 1.80645 14.8877C1.99338 15.2674 2.29592 15.578 2.67056 15.7749C2.95867 15.9263 3.27801 16.0044 3.6006 16.0045C3.69707 16.0045 3.79383 15.9975 3.89014 15.9834C4.30888 15.922 4.69736 15.7293 4.9997 15.4332L9.19256 10.6732C9.26764 10.588 9.35998 10.5198 9.46345 10.4731C9.56692 10.4263 9.67915 10.4022 9.79269 10.4021H9.79391H16.402ZM22.3733 13.6618L21.4994 9.1624C20.9618 10.0299 20.2119 10.746 19.3205 11.2429C18.4285 11.7402 17.4245 12.0016 16.4033 12.0025H16.402H15.9832L19.0038 15.4342C19.2316 15.6557 19.5086 15.8201 19.8122 15.9138C20.0052 15.9734 20.2056 16.0033 20.4064 16.0032C20.5208 16.003 20.6354 15.9931 20.7489 15.9733C21.2703 15.8813 21.734 15.5863 22.0383 15.153C22.3426 14.7197 22.4627 14.1835 22.3723 13.6618H22.3733ZM8.29767 5.96128L6.61732 8.52981L6.75335 8.80187H7.9696L9.05783 7.08951L10.1461 8.80187H11.3623L11.4983 8.52981L9.81798 5.96128L11.3943 3.55278L11.2663 3.28073H10.042L9.05783 4.84105L8.07362 3.28073H6.84937L6.72134 3.55278L8.29767 5.96128ZM13.0992 3.28073V8.80187H15.1636C16.7532 8.80187 17.5481 8.00703 17.5481 6.41737V5.66522C17.5481 4.07556 16.7532 3.28073 15.1636 3.28073H13.0992ZM15.2436 7.54561H14.4914V4.53699H15.2436C15.8517 4.53699 16.1558 4.84372 16.1558 5.45718V6.62542C16.1558 7.23888 15.8517 7.54561 15.2436 7.54561Z" fill="#F0ECF0"/>
</svg>
