<svg width="187" height="44" viewBox="0 0 187 44" fill="none" xmlns="http://www.w3.org/2000/svg">
<path fill-rule="evenodd" clip-rule="evenodd" d="M29.5629 6.875H29.5602H14.419H14.4163C11.996 6.87569 9.6534 7.72932 7.80007 9.28591C5.94675 10.8425 4.7013 13.0025 4.28256 15.3862L1.46896 29.8392C1.46813 29.8472 1.46813 29.8553 1.46896 29.8633C1.31214 30.7529 1.35199 31.666 1.58573 32.5386C1.81947 33.4111 2.24142 34.2219 2.82194 34.914C3.40246 35.606 4.12747 36.1626 4.94605 36.5446C5.76462 36.9266 6.6569 37.1247 7.56021 37.125H7.56127H7.5629C9.20377 37.1239 10.7773 36.4725 11.9388 35.3134L11.999 35.2498L18.8173 27.5H25.174L31.9991 35.2498C32.018 35.2722 32.0386 35.2928 32.0593 35.3134C32.6982 35.9521 33.4692 36.4432 34.3182 36.7521C34.9968 36.999 35.712 37.1247 36.4314 37.125C36.6128 37.1251 36.7946 37.1173 36.9761 37.1014C37.8761 37.0226 38.7478 36.7477 39.5302 36.296C40.3126 35.8443 40.9866 35.2267 41.5048 34.4867C41.9711 33.8211 42.3007 33.0695 42.4745 32.2756C42.6482 31.4817 42.6627 30.6611 42.5171 29.8616C42.5179 29.8536 42.5179 29.8455 42.5171 29.8375L39.7035 15.3708V15.3398C39.2686 12.9664 38.0161 10.8202 36.1637 9.2739C34.3113 7.7276 31.9759 6.87885 29.5629 6.875ZM29.5602 24.75C31.5659 24.75 33.4895 23.9532 34.9077 22.535C36.326 21.1168 37.1227 19.1932 37.1227 17.1875C37.1227 15.1818 36.326 13.2582 34.9077 11.84C33.4895 10.4218 31.5659 9.625 29.5602 9.625H14.419C12.6434 9.62659 10.9253 10.2543 9.56691 11.3977C8.2085 12.541 7.29682 14.1269 6.99227 15.8761V15.8984L4.17696 30.3514C4.05252 31.0679 4.15854 31.8055 4.47977 32.4579C4.801 33.1104 5.32088 33.6442 5.96466 33.9825C6.45963 34.2426 7.00822 34.3769 7.56243 34.3771C7.72815 34.377 7.89437 34.365 8.05979 34.3407C8.77936 34.2352 9.44692 33.9042 9.96646 33.3953L17.1715 25.2158C17.3005 25.0694 17.4591 24.9522 17.6369 24.8719C17.8148 24.7916 18.0076 24.75 18.2027 24.75H18.2054H29.5602ZM39.8211 30.3514L38.3196 22.6203C37.3959 24.1107 36.1073 25.341 34.5758 26.1948C33.0431 27.0493 31.3177 27.4985 29.5629 27.5H29.5602H28.841L34.0316 33.397C34.423 33.7777 34.899 34.0601 35.4207 34.2212C35.7524 34.3236 36.0966 34.375 36.4415 34.3748C36.6381 34.3745 36.835 34.3574 37.0299 34.3234C37.9259 34.1653 38.7226 33.6584 39.2455 32.9139C39.7684 32.1693 39.9748 31.2479 39.8194 30.3514H39.8211ZM15.6331 17.1189L12.7456 21.5326L12.9794 22.0001H15.0694L16.9394 19.0576L18.8094 22.0001H20.8994L21.1331 21.5326L18.2456 17.1189L20.9544 12.9801L20.7344 12.5126H18.6306L16.9394 15.1939L15.2481 12.5126H13.1444L12.9244 12.9801L15.6331 17.1189ZM23.884 12.5126V22.0001H27.4315C30.1631 22.0001 31.529 20.6343 31.529 17.9026V16.6101C31.529 13.8785 30.1631 12.5126 27.4315 12.5126H23.884ZM27.569 19.8414H26.2765V14.6714H27.569C28.614 14.6714 29.1365 15.1985 29.1365 16.2526V18.2601C29.1365 19.3143 28.614 19.8414 27.569 19.8414Z" fill="#8B5AA8"/>
<g filter="url(#filter0_d_297_964)">
<path d="M57.208 32.5C56.536 32.5 55.92 32.3413 55.36 32.024C54.8187 31.688 54.38 31.2493 54.044 30.708C53.7267 30.148 53.568 29.532 53.568 28.86V15.98C53.568 15.308 53.7267 14.7013 54.044 14.16C54.38 13.6 54.8187 13.1613 55.36 12.844C55.92 12.508 56.536 12.34 57.208 12.34H70.06C70.732 12.34 71.348 12.508 71.908 12.844C72.468 13.1613 72.9067 13.6 73.224 14.16C73.56 14.7013 73.728 15.308 73.728 15.98V17.184H70.676V16.064C70.676 15.8773 70.6107 15.7187 70.48 15.588C70.3493 15.4387 70.1907 15.364 70.004 15.364H57.292C57.1053 15.364 56.9373 15.4387 56.788 15.588C56.6573 15.7187 56.592 15.8773 56.592 16.064V28.776C56.592 28.9627 56.6573 29.1307 56.788 29.28C56.9373 29.4107 57.1053 29.476 57.292 29.476H70.004C70.1907 29.476 70.3493 29.4107 70.48 29.28C70.6107 29.1307 70.676 28.9627 70.676 28.776V24.492H65.916V21.44H73.728V28.86C73.728 29.532 73.56 30.148 73.224 30.708C72.9067 31.2493 72.468 31.688 71.908 32.024C71.348 32.3413 70.732 32.5 70.06 32.5H57.208ZM80.3382 32.5C79.6662 32.5 79.0502 32.332 78.4902 31.996C77.9489 31.66 77.5102 31.2213 77.1742 30.68C76.8569 30.1387 76.6982 29.532 76.6982 28.86V22.868H90.1662V19.984C90.1662 19.7973 90.1009 19.6387 89.9702 19.508C89.8395 19.3587 89.6809 19.284 89.4942 19.284H76.6982V16.26H89.5782C90.2502 16.26 90.8569 16.428 91.3982 16.764C91.9582 17.0813 92.3969 17.52 92.7142 18.08C93.0502 18.64 93.2182 19.2467 93.2182 19.9V32.5H80.3382ZM80.4222 29.476H90.1662V25.696H79.7222V28.776C79.7222 28.9627 79.7875 29.1307 79.9182 29.28C80.0675 29.4107 80.2355 29.476 80.4222 29.476ZM95.5667 32.5V16.26H116.315C117.005 16.26 117.621 16.428 118.163 16.764C118.704 17.1 119.133 17.5387 119.451 18.08C119.787 18.6213 119.955 19.228 119.955 19.9V32.5H116.959V19.984C116.959 19.7973 116.884 19.6387 116.735 19.508C116.604 19.3587 116.445 19.284 116.259 19.284H110.015C109.809 19.284 109.641 19.3587 109.511 19.508C109.38 19.6387 109.315 19.7973 109.315 19.984V32.5H106.263V19.984C106.263 19.7973 106.188 19.6387 106.039 19.508C105.908 19.3587 105.749 19.284 105.563 19.284H99.2907C99.104 19.284 98.9454 19.3587 98.8147 19.508C98.684 19.6387 98.6187 19.7973 98.6187 19.984V32.5H95.5667ZM126.084 32.5C125.412 32.5 124.805 32.332 124.264 31.996C123.722 31.66 123.284 31.2213 122.948 30.68C122.612 30.1387 122.444 29.532 122.444 28.86V19.9C122.444 19.228 122.612 18.6213 122.948 18.08C123.284 17.5387 123.722 17.1 124.264 16.764C124.805 16.428 125.412 16.26 126.084 16.26H135.324C135.996 16.26 136.602 16.428 137.144 16.764C137.704 17.0813 138.142 17.52 138.46 18.08C138.796 18.64 138.964 19.2467 138.964 19.9V25.892H125.468V28.776C125.468 28.9627 125.533 29.1307 125.664 29.28C125.813 29.4107 125.981 29.476 126.168 29.476H138.964V32.5H126.084ZM125.468 23.064H135.912V19.984C135.912 19.7973 135.846 19.6387 135.716 19.508C135.585 19.3587 135.426 19.284 135.24 19.284H126.168C125.981 19.284 125.813 19.3587 125.664 19.508C125.533 19.6387 125.468 19.7973 125.468 19.984V23.064ZM141.69 32.5V31.94L149.698 22.42L141.69 12.9V12.34H145.19L151.686 20.04L158.154 12.34H161.654V12.9L153.646 22.42L161.682 31.94V32.5H158.154L151.658 24.8L145.19 32.5H141.69ZM164.749 32.5V12.34H181.241C181.913 12.34 182.529 12.508 183.089 12.844C183.649 13.1613 184.088 13.6 184.405 14.16C184.741 14.7013 184.909 15.308 184.909 15.98V28.86C184.909 29.532 184.741 30.148 184.405 30.708C184.088 31.2493 183.649 31.688 183.089 32.024C182.529 32.3413 181.913 32.5 181.241 32.5H164.749ZM168.445 29.476H181.185C181.372 29.476 181.53 29.4107 181.661 29.28C181.792 29.1307 181.857 28.9627 181.857 28.776V16.064C181.857 15.8773 181.792 15.7187 181.661 15.588C181.53 15.4387 181.372 15.364 181.185 15.364H168.445C168.258 15.364 168.1 15.4387 167.969 15.588C167.838 15.7187 167.773 15.8773 167.773 16.064V28.776C167.773 28.9627 167.838 29.1307 167.969 29.28C168.1 29.4107 168.258 29.476 168.445 29.476Z" fill="#8B5AA8"/>
</g>
<defs>
<filter id="filter0_d_297_964" x="52.5684" y="12.3398" width="132.341" height="22.1602" filterUnits="userSpaceOnUse" color-interpolation-filters="sRGB">
<feFlood flood-opacity="0" result="BackgroundImageFix"/>
<feColorMatrix in="SourceAlpha" type="matrix" values="0 0 0 0 0 0 0 0 0 0 0 0 0 0 0 0 0 0 127 0" result="hardAlpha"/>
<feOffset dx="-1" dy="2"/>
<feComposite in2="hardAlpha" operator="out"/>
<feColorMatrix type="matrix" values="0 0 0 0 0.678431 0 0 0 0 0.517647 0 0 0 0 0.776471 0 0 0 0.2 0"/>
<feBlend mode="normal" in2="BackgroundImageFix" result="effect1_dropShadow_297_964"/>
<feBlend mode="normal" in="SourceGraphic" in2="effect1_dropShadow_297_964" result="shape"/>
</filter>
</defs>
</svg>
